<svg width="400" height="497" viewBox="0 0 400 497" fill="none" xmlns="http://www.w3.org/2000/svg">
<path d="M275 0L392.675 116.941C397.364 121.599 399.999 127.918 400 134.506V472.038C400 478.627 397.366 484.947 392.678 489.606C387.989 494.265 381.63 496.883 375 496.883H25C18.3696 496.883 12.0107 494.265 7.32234 489.606C2.63393 484.947 0 478.627 0 472.038V24.8441C0 18.2551 2.63393 11.9359 7.32234 7.27667C12.0107 2.6175 18.3696 0 25 0H275ZM200 136.643C180.87 136.642 162.462 143.905 148.543 156.947C134.625 169.99 126.247 187.824 125.125 206.803L125 211.175H175C174.999 207.157 175.978 203.198 177.855 199.638C179.732 196.078 182.449 193.024 185.774 190.738C189.1 188.451 192.933 187 196.947 186.509C200.96 186.019 205.034 186.503 208.818 187.92C212.601 189.337 215.983 191.646 218.672 194.647C221.361 197.648 223.277 201.253 224.256 205.152C225.235 209.051 225.248 213.128 224.293 217.033C223.339 220.938 221.445 224.554 218.775 227.572L216.725 229.634L125 311.719V347.818H275V298.13H214.875L250.175 266.577L250.025 266.329L250.225 266.528C261.487 256.437 269.406 243.19 272.938 228.535C276.47 213.881 275.449 198.506 270.009 184.44C264.57 170.374 254.968 158.276 242.47 149.743C229.971 141.21 215.164 136.643 200 136.643Z" fill="white"/>
</svg>
