<svg width="400" height="499" viewBox="0 0 400 499" fill="none" xmlns="http://www.w3.org/2000/svg">
<path d="M275 0L392.675 117.222C397.364 121.892 399.999 128.225 400 134.829V473.173C400 479.778 397.366 486.112 392.678 490.783C387.989 495.453 381.63 498.077 375 498.077H25C18.3696 498.077 12.0107 495.453 7.32234 490.783C2.63393 486.112 0 479.778 0 473.173V24.9038C0 18.2989 2.63393 11.9645 7.32234 7.29417C12.0107 2.62379 18.3696 0 25 0H275ZM225 149.423H150V199.231H175V348.654H225V149.423Z" fill="white"/>
</svg>
